<svg width="200" height="40" viewBox="0 0 200 40" fill="none" xmlns="http://www.w3.org/2000/svg">
<path d="M8.13206 35.4483C7.37718 35.4483 6.76908 35.2386 6.30777 34.8192C5.88838 34.3579 5.67871 33.7708 5.67871 33.0579V3.49192C5.67871 2.73704 5.88838 2.14992 6.30777 1.73054C6.76908 1.26923 7.37718 1.03857 8.13206 1.03857C8.84497 1.03857 9.41114 1.26923 9.83053 1.73054C10.2918 2.14992 10.5225 2.73704 10.5225 3.49192V5.63072C11.8645 4.07904 13.521 2.86285 15.4921 1.98217C17.5051 1.10148 19.6648 0.661133 21.9714 0.661133C24.949 0.661133 27.612 1.2902 29.9605 2.54832C32.309 3.76451 34.1542 5.56783 35.4963 7.95825C36.8802 10.3487 37.5721 13.2633 37.5721 16.7022V33.0579C37.5721 33.7288 37.3415 34.295 36.8802 34.7563C36.4189 35.2176 35.8527 35.4483 35.1817 35.4483C34.4688 35.4483 33.8816 35.2176 33.4203 34.7563C32.959 34.295 32.7284 33.7288 32.7284 33.0579V16.7022C32.7284 12.802 31.638 9.92932 29.4573 8.08407C27.3184 6.19689 24.6554 5.2533 21.4682 5.2533C19.4132 5.2533 17.547 5.65168 15.8695 6.44849C14.2339 7.24534 12.9339 8.33571 11.9693 9.71965C11.0048 11.1036 10.5225 12.6762 10.5225 14.4376V33.0579C10.5225 33.7708 10.2918 34.3579 9.83053 34.8192C9.41114 35.2386 8.84497 35.4483 8.13206 35.4483Z" fill="#2F3C54"/>
<path d="M140.255 35.4488C139.249 35.4488 138.494 34.9036 137.991 33.8133L124.026 4.18445C123.774 3.63927 123.753 3.09408 123.963 2.54889C124.173 2.0037 124.592 1.58433 125.221 1.29077C125.808 0.997205 126.374 0.95527 126.919 1.16496C127.465 1.37464 127.884 1.75208 128.178 2.29727L140.255 28.4663L152.208 2.29727C152.459 1.71014 152.879 1.33271 153.466 1.16496C154.095 0.95527 154.703 0.976237 155.29 1.22786C155.877 1.52142 156.276 1.96177 156.485 2.54889C156.695 3.09408 156.674 3.61829 156.423 4.12155L142.646 33.8133C142.143 34.9036 141.346 35.4488 140.255 35.4488ZM177.194 35.7634C173.965 35.7634 171.072 35.0085 168.513 33.4987C165.955 31.947 163.921 29.8502 162.411 27.2081C160.943 24.5661 160.209 21.5885 160.209 18.2755C160.209 14.9204 160.964 11.9219 162.474 9.27987C164.026 6.63781 166.123 4.56188 168.765 3.05214C171.407 1.50045 174.385 0.724609 177.697 0.724609C181.011 0.724609 183.967 1.50045 186.567 3.05214C189.209 4.56188 191.285 6.63781 192.795 9.27987C194.347 11.9219 195.143 14.9204 195.185 18.2755V33.0584C195.185 33.7713 194.955 34.3585 194.494 34.8198C194.032 35.2392 193.445 35.4488 192.732 35.4488C192.019 35.4488 191.432 35.2392 190.971 34.8198C190.509 34.3585 190.279 33.7713 190.279 33.0584V29.2211C188.853 31.2341 187.008 32.8277 184.743 34.002C182.479 35.1762 179.962 35.7634 177.194 35.7634ZM177.697 31.36C180.13 31.36 182.29 30.7938 184.177 29.6615C186.106 28.5291 187.616 26.9775 188.706 25.0064C189.838 22.9934 190.405 20.7498 190.405 18.2755C190.405 15.7592 189.838 13.5155 188.706 11.5445C187.616 9.57344 186.106 8.02175 184.177 6.88941C182.29 5.71519 180.13 5.12805 177.697 5.12805C175.307 5.12805 173.147 5.71519 171.218 6.88941C169.289 8.02175 167.758 9.57344 166.626 11.5445C165.494 13.5155 164.928 15.7592 164.928 18.2755C164.928 20.7498 165.494 22.9934 166.626 25.0064C167.758 26.9775 169.289 28.5291 171.218 29.6615C173.147 30.7938 175.307 31.36 177.697 31.36Z" fill="#2F3C54"/>
<path d="M60.8693 33.817C60.7756 34.4919 60.18 34.9874 59.5034 34.9066C55.3148 34.4062 51.1003 32.4814 48.2548 29.4511C45.1371 26.1308 43.44 21.7418 43.5208 17.2073C43.6017 12.6727 45.454 8.34595 48.6881 5.1368C51.6128 2.23492 55.4614 0.451413 59.555 0.0726072C60.2754 0.00593372 60.8741 0.586227 60.8881 1.30971L60.8933 1.58826C60.9073 2.3121 60.3305 2.90413 59.6106 2.98138C56.2754 3.33928 53.148 4.81544 50.759 7.18577C48.0601 9.86376 46.5144 13.4744 46.447 17.2585C46.3796 21.0425 47.7953 24.7051 50.3971 27.4758C52.7305 29.9608 56.229 31.5549 59.6772 32.0056C60.3467 32.0932 60.8842 32.6307 60.9122 33.3056L60.9139 33.3421C60.917 33.4203 60.913 33.4987 60.9025 33.5762L60.8693 33.817Z" fill="#2F3C54"/>
<path d="M104.712 34.2592C104.948 34.7167 105.432 34.9973 105.945 34.9452C110.197 34.513 114.159 32.5662 117.085 29.4511C120.202 26.1308 121.899 21.7418 121.818 17.2073C121.738 12.6727 119.885 8.34595 116.651 5.1368C113.727 2.23492 109.878 0.451413 105.784 0.0726072C105.064 0.00593372 104.465 0.586227 104.451 1.30971L104.446 1.58826C104.432 2.3121 105.009 2.90413 105.729 2.98138C109.064 3.33928 112.192 4.81544 114.58 7.18577C117.279 9.86376 118.825 13.4744 118.892 17.2585C118.96 21.0425 117.544 24.7051 114.942 27.4758C112.545 30.0294 109.312 31.6421 105.834 32.0403C105.298 32.1017 104.83 32.4532 104.662 32.9661L104.593 33.1747C104.483 33.5093 104.512 33.8742 104.674 34.187L104.712 34.2592Z" fill="#2F3C54"/>
<path d="M98.353 12.7485C97.8607 12.1786 97.9561 11.301 98.6296 10.9638C99.5066 10.5245 100.468 10.2379 101.466 10.1227C102.939 9.95279 104.434 10.1626 105.785 10.7291C107.137 11.2956 108.293 12.1966 109.126 13.3326C109.681 14.0898 110.077 14.9317 110.3 15.8149C110.485 16.546 109.889 17.1917 109.135 17.2235C108.39 17.255 107.776 16.6655 107.525 15.9624C107.372 15.5316 107.154 15.1205 106.876 14.7414C106.325 13.989 105.559 13.3922 104.664 13.017C103.768 12.6418 102.778 12.5028 101.802 12.6154C101.234 12.681 100.683 12.8306 100.171 13.0562C99.5521 13.3286 98.795 13.2599 98.353 12.7485Z" fill="#2F3C54"/>
<path d="M69.9531 26.2544C70.424 26.8473 70.3308 27.7159 69.6945 28.1257C67.7868 29.3539 65.5873 30.0661 63.3098 30.1804C60.5759 30.3176 57.8682 29.5866 55.5702 28.0907C53.2722 26.5949 51.4998 24.41 50.5037 21.845C49.5076 19.2801 49.3383 16.465 50.0201 13.798C50.7015 11.131 52.1995 8.74719 54.3019 6.98374C56.4044 5.22032 59.0048 4.16651 61.7348 3.97146C64.4652 3.77641 67.1873 4.45 69.5164 5.89687C71.4582 7.10326 73.0446 8.79625 74.1264 10.7999C74.4857 11.4649 74.1488 12.2695 73.4512 12.5607C72.7496 12.8537 71.9514 12.5145 71.5711 11.8562C70.7225 10.3874 69.5238 9.14444 68.0752 8.24444C66.2359 7.10159 64.0857 6.5696 61.9291 6.72365C59.7728 6.8777 57.719 7.71004 56.0582 9.10291C54.3978 10.4958 53.2144 12.3786 52.6761 14.4851C52.1378 16.5916 52.2713 18.8151 53.0582 20.841C53.8446 22.8669 55.2446 24.5927 57.0599 25.7742C58.8752 26.9557 61.0135 27.5331 63.1728 27.4247C64.87 27.3395 66.5129 26.834 67.9584 25.9624C68.6118 25.5683 69.4787 25.6566 69.9531 26.2544Z" fill="#2F3C54"/>
<path d="M95.8217 7.8817C95.3512 7.28888 95.444 6.42022 96.0808 6.01041C97.988 4.78223 100.188 4.0701 102.465 3.95577C105.199 3.81854 107.907 4.54954 110.205 6.04542C112.503 7.54127 114.275 9.72621 115.272 12.2912C116.268 14.8561 116.437 17.6712 115.755 20.3382C115.073 23.0051 113.575 25.3889 111.473 27.1524C109.37 28.9158 106.77 29.9696 104.04 30.1647C101.31 30.3597 98.5875 29.6862 96.2584 28.2393C94.3166 27.0329 92.7302 25.3399 91.6484 23.3362C91.2891 22.6712 91.626 21.8667 92.3236 21.5755C93.0252 21.2825 93.8239 21.6217 94.2042 22.28C95.0527 23.7487 96.251 24.9917 97.6996 25.8917C99.539 27.0346 101.689 27.5666 103.846 27.4125C106.002 27.2585 108.056 26.4261 109.717 25.0333C111.377 23.6404 112.56 21.7575 113.099 19.651C113.637 17.5445 113.504 15.321 112.717 13.2951C111.93 11.2692 110.53 9.54345 108.715 8.36197C106.9 7.18043 104.761 6.60306 102.602 6.71146C100.905 6.79667 99.2624 7.30214 97.8169 8.17369C97.163 8.56783 96.2965 8.47952 95.8217 7.8817Z" fill="#2F3C54"/>
<path d="M68.015 22.0377C68.5415 22.6035 68.5183 23.5092 67.8391 23.8766C66.8036 24.4369 65.6601 24.6184 64.4605 24.7265C62.8063 24.8755 61.141 24.5871 59.6745 23.8977C58.208 23.2082 57.0067 22.1488 56.2224 20.8533C55.6842 19.9644 55.3586 18.9919 55.2596 17.9957C55.1835 17.2321 55.8763 16.671 56.6408 16.7355C57.4356 16.8025 57.9971 17.5261 58.1726 18.3038C58.2793 18.7757 58.464 19.2335 58.7235 19.6619C59.2435 20.52 60.0391 21.2218 61.0102 21.6784C61.9818 22.135 63.0846 22.3261 64.1804 22.2274C64.8461 22.1674 65.4907 22.002 66.0855 21.7422C66.7371 21.4572 67.5301 21.5164 68.015 22.0377Z" fill="#2F3C54"/>
<path d="M92.0005 5.33105L90.5799 6.33177" stroke="#2F3C54" stroke-width="2.62109" stroke-linecap="round"/>
<path d="M77.21 27.6514L75.7894 28.6521" stroke="#2F3C54" stroke-width="2.62109" stroke-linecap="round"/>
<path d="M99.4178 12.0352L81.0073 24.8029" stroke="#2F3C54" stroke-width="2.62109" stroke-linecap="round"/>
<path d="M67.0493 22.816L86.0708 9.76855" stroke="#2F3C54" stroke-width="2.62109" stroke-linecap="round"/>
<path d="M97.5776 6.64551L68.8304 27.0121" stroke="#2F3C54" stroke-width="2.62109" stroke-linecap="round"/>
</svg>
