<svg width="200" height="40" viewBox="0 0 200 40" fill="none" xmlns="http://www.w3.org/2000/svg">
<g clip-path="url(#clip0_821_31)">
<g filter="url(#filter0_d_821_31)">
<path d="M4.7993 37.582C4.0188 37.582 3.39007 37.3652 2.9131 36.9315C2.47948 36.4546 2.2627 35.8475 2.2627 35.1104V4.54111C2.2627 3.76062 2.47948 3.15357 2.9131 2.71996C3.39007 2.24299 4.0188 2.0045 4.7993 2.0045C5.53641 2.0045 6.12179 2.24299 6.55536 2.71996C7.03233 3.15357 7.27084 3.76062 7.27084 4.54111V6.7525C8.6584 5.14815 10.3711 3.8907 12.4091 2.98012C14.4904 2.06955 16.7235 1.61426 19.1083 1.61426C22.1869 1.61426 24.9403 2.26467 27.3685 3.56549C29.7967 4.82295 31.7046 6.68748 33.0922 9.15901C34.523 11.6306 35.2385 14.6441 35.2385 18.1997V35.1104C35.2385 35.8042 35 36.3896 34.523 36.8665C34.0461 37.3435 33.4607 37.582 32.7669 37.582C32.0298 37.582 31.4227 37.3435 30.9458 36.8665C30.4688 36.3896 30.2303 35.8042 30.2303 35.1104V18.1997C30.2303 14.1672 29.103 11.197 26.8482 9.2891C24.6368 7.33788 21.8834 6.36227 18.588 6.36227C16.4633 6.36227 14.5337 6.77417 12.7993 7.59802C11.1083 8.42191 9.7641 9.54928 8.76677 10.9802C7.76948 12.4111 7.27084 14.0371 7.27084 15.8582V35.1104C7.27084 35.8475 7.03233 36.4546 6.55536 36.9315C6.12179 37.3652 5.53641 37.582 4.7993 37.582Z" fill="white"/>
<path d="M141.407 37.5814C140.366 37.5814 139.585 37.0177 139.065 35.8903L124.626 5.25597C124.366 4.69228 124.344 4.12859 124.561 3.56491C124.778 3.00121 125.212 2.56761 125.862 2.26408C126.469 1.96056 127.054 1.9172 127.618 2.134C128.182 2.35081 128.615 2.74105 128.919 3.30474L141.407 30.3618L153.764 3.30474C154.025 2.69769 154.458 2.30744 155.065 2.134C155.716 1.9172 156.345 1.93888 156.951 2.19904C157.559 2.50257 157.97 2.95786 158.187 3.56491C158.404 4.12859 158.382 4.6706 158.122 5.19093L143.878 35.8903C143.358 37.0177 142.534 37.5814 141.407 37.5814ZM179.599 37.9066C176.26 37.9066 173.268 37.1261 170.623 35.5651C167.978 33.9607 165.875 31.7927 164.314 29.061C162.797 26.3293 162.038 23.2506 162.038 19.8252C162.038 16.3563 162.818 13.256 164.379 10.5243C165.983 7.79259 168.152 5.64621 170.883 4.08523C173.615 2.48088 176.694 1.67871 180.119 1.67871C183.545 1.67871 186.602 2.48088 189.29 4.08523C192.022 5.64621 194.168 7.79259 195.729 10.5243C197.333 13.256 198.157 16.3563 198.201 19.8252V35.1098C198.201 35.8469 197.962 36.454 197.485 36.931C197.008 37.3646 196.401 37.5814 195.664 37.5814C194.927 37.5814 194.32 37.3646 193.843 36.931C193.366 36.454 193.127 35.8469 193.127 35.1098V31.1423C191.653 33.2236 189.745 34.8713 187.404 36.0854C185.062 37.2995 182.461 37.9066 179.599 37.9066ZM180.119 33.3537C182.634 33.3537 184.867 32.7683 186.818 31.5976C188.813 30.4268 190.374 28.8225 191.502 26.7845C192.672 24.7032 193.258 22.3834 193.258 19.8252C193.258 17.2235 192.672 14.9037 191.502 12.8658C190.374 10.8278 188.813 9.22349 186.818 8.05272C184.867 6.83865 182.634 6.23159 180.119 6.23159C177.648 6.23159 175.415 6.83865 173.42 8.05272C171.426 9.22349 169.843 10.8278 168.672 12.8658C167.501 14.9037 166.916 17.2235 166.916 19.8252C166.916 22.3834 167.501 24.7032 168.672 26.7845C169.843 28.8225 171.426 30.4268 173.42 31.5976C175.415 32.7683 177.648 33.3537 180.119 33.3537Z" fill="white"/>
<path d="M59.326 35.895C59.2296 36.5928 58.6137 37.1051 57.9142 37.0215C53.583 36.5041 49.226 34.5141 46.2839 31.3809C43.0599 27.9479 41.3055 23.41 41.3891 18.7215C41.4727 14.0331 43.388 9.55951 46.7318 6.24146C49.7558 3.24109 53.7346 1.39706 57.9676 1.0054C58.7124 0.936466 59.3314 1.53645 59.3459 2.28449L59.3513 2.57249C59.3658 3.32089 58.769 3.93302 58.0246 4.01289C54.5766 4.38294 51.3427 5.90919 48.873 8.35996C46.0825 11.1288 44.4843 14.862 44.4142 18.7745C44.3445 22.687 45.8088 26.4738 48.4988 29.3386C50.9115 31.9079 54.5287 33.5561 58.0938 34.0221C58.7861 34.1127 59.3418 34.6684 59.3708 35.3662L59.3721 35.404C59.3757 35.4849 59.3717 35.5658 59.3608 35.646L59.326 35.895Z" fill="white"/>
<path d="M104.656 36.3522C104.901 36.8252 105.401 37.1153 105.931 37.0615C110.328 36.6146 114.425 34.6017 117.449 31.3809C120.673 27.9479 122.427 23.41 122.344 18.7215C122.26 14.0331 120.345 9.55951 117.001 6.24146C113.977 3.24109 109.998 1.39706 105.765 1.0054C105.02 0.936466 104.402 1.53645 104.387 2.28449L104.382 2.57249C104.367 3.32089 104.964 3.93302 105.708 4.01289C109.156 4.38294 112.39 5.90919 114.86 8.35996C117.65 11.1288 119.249 14.862 119.318 18.7745C119.388 22.687 117.924 26.4738 115.234 29.3386C112.754 31.9788 109.412 33.6463 105.816 34.058C105.262 34.1215 104.779 34.4849 104.604 35.0152L104.533 35.2308C104.42 35.5768 104.45 35.9541 104.617 36.2776L104.656 36.3522Z" fill="white"/>
<path d="M98.0824 14.1111C97.5734 13.5218 97.6716 12.6144 98.368 12.2657C99.2747 11.8115 100.269 11.5152 101.301 11.3961C102.824 11.2204 104.369 11.4374 105.767 12.0231C107.165 12.6088 108.36 13.5404 109.22 14.7149C109.794 15.4978 110.205 16.3683 110.435 17.2815C110.626 18.0374 110.01 18.705 109.23 18.7379C108.459 18.7705 107.825 18.1609 107.566 17.434C107.407 16.9886 107.182 16.5635 106.895 16.1716C106.325 15.3937 105.533 14.7766 104.607 14.3886C103.682 14.0007 102.658 13.857 101.649 13.9734C101.061 14.0412 100.492 14.1959 99.9616 14.4292C99.3223 14.7108 98.5395 14.6398 98.0824 14.1111Z" fill="white"/>
<path d="M68.7184 28.0762C69.2049 28.6892 69.1089 29.5873 68.4506 30.011C66.4786 31.2809 64.2044 32.0172 61.8492 32.1354C59.023 32.2773 56.2234 31.5214 53.8474 29.9748C51.4709 28.4282 49.6383 26.1691 48.6085 23.5171C47.5786 20.8652 47.404 17.9545 48.1089 15.1971C48.8135 12.4396 50.3623 9.97484 52.5361 8.15154C54.7098 6.32828 57.3981 5.2387 60.2211 5.03703C63.0442 4.83536 65.8587 5.53181 68.2668 7.02778C70.2745 8.27511 71.9148 10.0256 73.0334 12.0972C73.4049 12.7847 73.0564 13.6166 72.3352 13.9177C71.6098 14.2207 70.7845 13.87 70.3908 13.1893C69.5135 11.6707 68.2745 10.3856 66.7768 9.45502C64.875 8.27339 62.6519 7.72335 60.422 7.88262C58.1922 8.0419 56.0687 8.90249 54.3519 10.3426C52.6352 11.7828 51.4116 13.7295 50.8551 15.9075C50.2985 18.0855 50.4365 20.3844 51.2501 22.4791C52.0632 24.5738 53.5107 26.3581 55.3877 27.5797C57.2646 28.8013 59.4754 29.3983 61.708 29.2862C63.4628 29.1981 65.161 28.6755 66.6555 27.7743C67.3315 27.3668 68.2275 27.4581 68.7184 28.0762Z" fill="white"/>
<path d="M95.4648 9.07994C94.9779 8.467 95.0743 7.56886 95.7322 7.14515C97.7046 5.87528 99.9788 5.13899 102.334 5.02078C105.16 4.87889 107.96 5.63469 110.336 7.18135C112.712 8.72795 114.544 10.987 115.574 13.639C116.604 16.291 116.779 19.2016 116.074 21.9591C115.37 24.7166 113.821 27.1813 111.647 29.0046C109.473 30.8279 106.785 31.9175 103.962 32.1191C101.139 32.3208 98.3245 31.6244 95.9164 30.1284C93.9087 28.8811 92.2684 27.1306 91.1499 25.0589C90.7784 24.3714 91.1268 23.5395 91.8481 23.2385C92.5734 22.9355 93.3988 23.2862 93.792 23.9668C94.6698 25.4854 95.9087 26.7706 97.4064 27.7012C99.3083 28.8828 101.531 29.4328 103.761 29.2736C105.991 29.1143 108.114 28.2537 109.831 26.8136C111.548 25.3734 112.772 23.4267 113.328 21.2487C113.885 19.0707 113.747 16.7718 112.933 14.6771C112.12 12.5824 110.673 10.7981 108.796 9.5765C106.919 8.35488 104.708 7.75791 102.475 7.86999C100.72 7.95809 99.0218 8.48071 97.5273 9.38184C96.8517 9.78936 95.9553 9.69804 95.4648 9.07994Z" fill="white"/>
<path d="M66.7151 23.7153C67.2594 24.3004 67.2354 25.2368 66.5332 25.6166C65.4621 26.196 64.2802 26.3836 63.0395 26.4954C61.3296 26.6495 59.6074 26.3512 58.0915 25.6384C56.5752 24.9256 55.3332 23.8303 54.5219 22.4908C53.9653 21.5717 53.6291 20.5662 53.5264 19.5362C53.4481 18.7467 54.1644 18.1666 54.9549 18.2332C55.7762 18.3025 56.3567 19.0507 56.5386 19.8548C56.649 20.3427 56.84 20.816 57.1083 21.259C57.6454 22.1462 58.4685 22.8717 59.4725 23.3439C60.4766 23.816 61.6173 24.0136 62.7499 23.9115C63.4386 23.8495 64.1051 23.6785 64.7196 23.4098C65.3934 23.1152 66.2137 23.1764 66.7151 23.7153Z" fill="white"/>
<path d="M91.5142 6.44238L90.0453 7.47706" stroke="white" stroke-width="2.71005" stroke-linecap="round"/>
<path d="M76.2212 29.5195L74.7524 30.5542" stroke="white" stroke-width="2.71005" stroke-linecap="round"/>
<path d="M99.1828 13.3735L80.1479 26.5746Z" fill="black"/>
<path d="M99.1828 13.3735L80.1479 26.5746" stroke="white" stroke-width="2.71005" stroke-linecap="round"/>
<path d="M65.7163 24.5205L85.3833 11.0303Z" fill="black"/>
<path d="M65.7163 24.5205L85.3833 11.0303" stroke="white" stroke-width="2.71005" stroke-linecap="round"/>
<path d="M97.2803 7.80078L67.5575 28.8585" stroke="white" stroke-width="2.71005" stroke-linecap="round"/>
</g>
</g>
<defs>
<filter id="filter0_d_821_31" x="0.452741" y="1" width="199.558" height="40.5266" filterUnits="userSpaceOnUse" color-interpolation-filters="sRGB">
<feFlood flood-opacity="0" result="BackgroundImageFix"/>
<feColorMatrix in="SourceAlpha" type="matrix" values="0 0 0 0 0 0 0 0 0 0 0 0 0 0 0 0 0 0 127 0" result="hardAlpha"/>
<feOffset dy="1.80995"/>
<feGaussianBlur stdDeviation="0.904977"/>
<feColorMatrix type="matrix" values="0 0 0 0 0 0 0 0 0 0 0 0 0 0 0 0 0 0 0.25 0"/>
<feBlend mode="normal" in2="BackgroundImageFix" result="effect1_dropShadow_821_31"/>
<feBlend mode="normal" in="SourceGraphic" in2="effect1_dropShadow_821_31" result="shape"/>
</filter>
<clipPath id="clip0_821_31">
<rect width="200" height="40" fill="white"/>
</clipPath>
</defs>
</svg>
