<svg width="457" height="90" viewBox="0 0 457 90" fill="none" xmlns="http://www.w3.org/2000/svg">
<g filter="url(#filter0_d_707_16)">
<path d="M18.5819 81C16.857 81 15.4675 80.5209 14.4134 79.5626C13.4551 78.5085 12.976 77.1669 12.976 75.5379V7.97973C12.976 6.25484 13.4551 4.91326 14.4134 3.95499C15.4675 2.90089 16.857 2.37383 18.5819 2.37383C20.2109 2.37383 21.5046 2.90089 22.4629 3.95499C23.517 4.91326 24.044 6.25484 24.044 7.97973V12.8669C27.1105 9.3213 30.8956 6.54232 35.3995 4.52995C39.9992 2.51758 44.9343 1.51139 50.2048 1.51139C57.0085 1.51139 63.0936 2.9488 68.4599 5.82362C73.8262 8.6026 78.0426 12.7232 81.1091 18.1853C84.2714 23.6475 85.8525 30.3074 85.8525 38.1653V75.5379C85.8525 77.0711 85.3255 78.3648 84.2714 79.4189C83.2173 80.473 81.9236 81 80.3904 81C78.7613 81 77.4197 80.473 76.3656 79.4189C75.3115 78.3648 74.7845 77.0711 74.7845 75.5379V38.1653C74.7845 29.2533 72.293 22.6892 67.31 18.4728C62.4228 14.1606 56.3377 12.0045 49.0549 12.0045C44.3594 12.0045 40.095 12.9148 36.262 14.7355C32.5247 16.5563 29.5541 19.0478 27.35 22.2101C25.146 25.3724 24.044 28.9659 24.044 32.9906V75.5379C24.044 77.1669 23.517 78.5085 22.4629 79.5626C21.5046 80.5209 20.2109 81 18.5819 81Z" fill="#2F3C54"/>
<path d="M320.484 81C318.185 81 316.46 79.7542 315.31 77.2627L283.399 9.56087C282.824 8.31512 282.776 7.06937 283.256 5.82362C283.735 4.57786 284.693 3.61959 286.13 2.9488C287.472 2.27801 288.766 2.18219 290.011 2.66132C291.257 3.14046 292.215 4.0029 292.886 5.24865L320.484 65.0448L347.795 5.24865C348.37 3.90707 349.328 3.04463 350.67 2.66132C352.107 2.18219 353.497 2.2301 354.838 2.80506C356.18 3.47585 357.09 4.48204 357.569 5.82362C358.049 7.06937 358.001 8.2672 357.426 9.41713L325.947 77.2627C324.797 79.7542 322.976 81 320.484 81ZM404.889 81.7187C397.511 81.7187 390.899 79.9938 385.053 76.544C379.208 72.9984 374.56 68.2071 371.11 62.17C367.756 56.1329 366.079 49.3291 366.079 41.7588C366.079 34.0926 367.804 27.241 371.254 21.2039C374.8 15.1668 379.591 10.4233 385.628 6.97354C391.665 3.42793 398.469 1.65513 406.039 1.65513C413.61 1.65513 420.365 3.42793 426.307 6.97354C432.344 10.4233 437.087 15.1668 440.537 21.2039C444.083 27.241 445.903 34.0926 445.999 41.7588V75.5379C445.999 77.1669 445.472 78.5085 444.418 79.5626C443.364 80.5209 442.022 81 440.393 81C438.764 81 437.423 80.5209 436.369 79.5626C435.314 78.5085 434.787 77.1669 434.787 75.5379V66.7697C431.529 71.3694 427.313 75.0108 422.138 77.694C416.964 80.3771 411.214 81.7187 404.889 81.7187ZM406.039 71.6569C411.597 71.6569 416.532 70.3632 420.845 67.7759C425.253 65.1885 428.702 61.6429 431.194 57.139C433.781 52.5393 435.075 47.4126 435.075 41.7588C435.075 36.0092 433.781 30.8824 431.194 26.3785C428.702 21.8747 425.253 18.3291 420.845 15.7417C416.532 13.0586 411.597 11.717 406.039 11.717C400.577 11.717 395.642 13.0586 391.234 15.7417C386.826 18.3291 383.328 21.8747 380.741 26.3785C378.154 30.8824 376.86 36.0092 376.86 41.7588C376.86 47.4126 378.154 52.5393 380.741 57.139C383.328 61.6429 386.826 65.1885 391.234 67.7759C395.642 70.3632 400.577 71.6569 406.039 71.6569Z" fill="#2F3C54"/>
<path d="M139.087 77.2722C138.873 78.8143 137.512 79.9465 135.966 79.7618C126.395 78.6184 116.765 74.2204 110.263 67.296C103.139 59.7091 99.2611 49.6804 99.4458 39.3189C99.6305 28.9575 103.863 19.0708 111.253 11.7379C117.936 5.1071 126.73 1.03179 136.084 0.166218C137.73 0.0138691 139.098 1.33984 139.13 2.993L139.142 3.62948C139.174 5.28345 137.856 6.63625 136.211 6.81276C128.59 7.63057 121.444 11.0036 115.985 16.4198C109.818 22.539 106.286 30.7894 106.132 39.436C105.978 48.0825 109.213 56.4514 115.158 62.7826C120.49 68.4608 128.484 72.1032 136.363 73.1332C137.893 73.3333 139.121 74.5615 139.185 76.1036L139.189 76.1871C139.196 76.3658 139.187 76.5448 139.163 76.722L139.087 77.2722Z" fill="#2F3C54"/>
<path d="M239.266 78.2826C239.807 79.328 240.912 79.9692 242.083 79.8501C251.801 78.8625 260.854 74.4141 267.538 67.296C274.662 59.7091 278.54 49.6804 278.355 39.3189C278.171 28.9575 273.938 19.0708 266.548 11.7379C259.865 5.1071 251.071 1.03179 241.717 0.166218C240.071 0.0138691 238.703 1.33984 238.671 2.993L238.659 3.62948C238.627 5.28345 239.945 6.63625 241.59 6.81276C249.211 7.63057 256.358 11.0036 261.816 16.4198C267.983 22.539 271.515 30.7894 271.669 39.4359C271.824 48.0825 268.588 56.4514 262.643 62.7826C257.164 68.6175 249.777 72.3026 241.831 73.2125C240.605 73.3528 239.537 74.1558 239.152 75.3279L238.995 75.8044C238.743 76.5691 238.81 77.4028 239.18 78.1177L239.266 78.2826Z" fill="#2F3C54"/>
<path d="M224.737 29.1299C223.612 27.8277 223.83 25.8223 225.369 25.0517C227.373 24.0479 229.57 23.3931 231.85 23.1299C235.216 22.7416 238.631 23.2211 241.72 24.5155C244.809 25.8099 247.451 27.8687 249.353 30.4644C250.621 32.1946 251.527 34.1184 252.036 36.1365C252.458 37.8071 251.096 39.2825 249.375 39.3552V39.3552C247.671 39.4272 246.269 38.0801 245.696 36.4736C245.345 35.4893 244.847 34.5498 244.212 33.6836C242.952 31.9644 241.203 30.6007 239.157 29.7433C237.111 28.886 234.848 28.5683 232.619 28.8256C231.32 28.9755 230.062 29.3173 228.891 29.833C227.477 30.4553 225.747 30.2984 224.737 29.1299V29.1299Z" fill="#2F3C54"/>
<path d="M159.843 59.9919C160.919 61.3466 160.706 63.3314 159.252 64.2678C154.893 67.0743 149.867 68.7015 144.663 68.9627C138.416 69.2763 132.229 67.6059 126.978 64.1879C121.727 60.7699 117.677 55.7773 115.401 49.9164C113.125 44.0555 112.738 37.623 114.296 31.529C115.853 25.435 119.276 19.9879 124.08 15.9584C128.884 11.929 134.826 9.52104 141.064 9.07535C147.303 8.62966 153.523 10.1688 158.845 13.4749C163.282 16.2315 166.907 20.1 169.379 24.6784C170.2 26.1978 169.43 28.0363 167.836 28.7017V28.7017C166.233 29.3712 164.409 28.5961 163.54 27.0919C161.601 23.7358 158.862 20.8956 155.552 18.8391C151.349 16.2277 146.436 15.0121 141.508 15.3641C136.581 15.7161 131.888 17.618 128.093 20.8007C124.299 23.9834 121.595 28.2857 120.365 33.099C119.135 37.9124 119.44 42.9931 121.238 47.6223C123.035 52.2515 126.234 56.1949 130.382 58.8946C134.53 61.5943 139.416 62.9137 144.35 62.666C148.228 62.4713 151.982 61.3163 155.285 59.3247C156.778 58.4242 158.759 58.626 159.843 59.9919V59.9919Z" fill="#2F3C54"/>
<path d="M218.952 18.0095C217.877 16.6549 218.089 14.67 219.544 13.7336C223.902 10.9272 228.929 9.29999 234.133 9.03875C240.379 8.72517 246.566 10.3955 251.817 13.8136C257.069 17.2316 261.119 22.2242 263.395 28.0851C265.671 33.946 266.057 40.3784 264.499 46.4725C262.942 52.5665 259.519 58.0135 254.715 62.043C249.911 66.0725 243.97 68.4804 237.731 68.9261C231.492 69.3718 225.272 67.8327 219.95 64.5266C215.513 61.77 211.888 57.9014 209.416 53.3231C208.595 51.8036 209.365 49.9652 210.959 49.2998V49.2998C212.562 48.6303 214.387 49.4053 215.256 50.9095C217.195 54.2656 219.933 57.1058 223.243 59.1624C227.446 61.7738 232.359 62.9894 237.287 62.6374C242.215 62.2854 246.908 60.3835 250.702 57.2008C254.496 54.0181 257.2 49.7158 258.43 44.9024C259.66 40.0891 259.355 35.0084 257.558 30.3792C255.76 25.75 252.561 21.8066 248.413 19.1069C244.265 16.4071 239.379 15.0878 234.445 15.3355C230.567 15.5302 226.814 16.6852 223.511 18.6767C222.017 19.5773 220.037 19.3755 218.952 18.0095V18.0095Z" fill="#2F3C54"/>
<path d="M155.415 50.3554C156.618 51.6484 156.565 53.7178 155.013 54.5573C152.647 55.8376 150.034 56.2524 147.293 56.4994C143.513 56.8399 139.708 56.1808 136.357 54.6055C133.006 53.0302 130.261 50.6094 128.469 47.6492C127.239 45.6181 126.495 43.3958 126.269 41.1195C126.095 39.3747 127.678 38.0927 129.425 38.24V38.24C131.241 38.393 132.524 40.0466 132.925 41.8236C133.169 42.9018 133.591 43.9479 134.184 44.9269C135.372 46.8876 137.19 48.4911 139.409 49.5345C141.629 50.5779 144.149 51.0145 146.653 50.7889C148.174 50.6519 149.647 50.274 151.006 49.6802C152.495 49.0291 154.307 49.1643 155.415 50.3554V50.3554Z" fill="#2F3C54"/>
<line x1="2.9946" y1="-2.9946" x2="6.96522" y2="-2.9946" transform="matrix(-0.817527 0.57589 -0.571263 -0.820767 210.959 8)" stroke="#2F3C54" stroke-width="5.9892" stroke-linecap="round"/>
<line x1="2.9946" y1="-2.9946" x2="6.96522" y2="-2.9946" transform="matrix(-0.817527 0.57589 -0.571263 -0.820767 177.162 59)" stroke="#2F3C54" stroke-width="5.9892" stroke-linecap="round"/>
<path d="M227.17 27.5L185.102 56.6744" stroke="#2F3C54" stroke-width="5.9892" stroke-linecap="round"/>
<path d="M153.208 52.1348L196.672 22.3213" stroke="#2F3C54" stroke-width="5.9892" stroke-linecap="round"/>
<line x1="2.9946" y1="-2.9946" x2="83.4967" y2="-2.9946" transform="matrix(-0.815971 0.578092 -0.573465 -0.81923 223.691 11.0005)" stroke="#2F3C54" stroke-width="5.9892" stroke-linecap="round"/>
</g>
<defs>
<filter id="filter0_d_707_16" x="8.97595" y="0.154297" width="441.023" height="89.5645" filterUnits="userSpaceOnUse" color-interpolation-filters="sRGB">
<feFlood flood-opacity="0" result="BackgroundImageFix"/>
<feColorMatrix in="SourceAlpha" type="matrix" values="0 0 0 0 0 0 0 0 0 0 0 0 0 0 0 0 0 0 127 0" result="hardAlpha"/>
<feOffset dy="4"/>
<feGaussianBlur stdDeviation="2"/>
<feComposite in2="hardAlpha" operator="out"/>
<feColorMatrix type="matrix" values="0 0 0 0 0 0 0 0 0 0 0 0 0 0 0 0 0 0 0.25 0"/>
<feBlend mode="normal" in2="BackgroundImageFix" result="effect1_dropShadow_707_16"/>
<feBlend mode="normal" in="SourceGraphic" in2="effect1_dropShadow_707_16" result="shape"/>
</filter>
</defs>
</svg>
