<svg width="30" height="30" viewBox="0 0 30 30" fill="none" xmlns="http://www.w3.org/2000/svg">
<circle cx="15" cy="15" r="15" fill="#FDFBF9"/>
<path d="M22.5198 20.9691C22.6029 21.1286 22.7718 21.2263 22.9507 21.2083C24.4465 21.0577 25.8401 20.3774 26.8688 19.2884C27.9648 18.1283 28.5613 16.5947 28.5328 15.0103C28.5044 13.426 28.0057 11.7569 26.8688 10.6357C25.8413 9.62229 24.349 8.98253 22.8839 8.84649C22.6283 8.82275 22.4173 9.03102 22.4173 9.28775V9.30419C22.4173 9.55419 22.6178 9.7563 22.8665 9.78122C24.0668 9.90146 25.2724 10.4091 26.1157 11.2408C27.0644 12.1765 27.4806 13.7061 27.5043 15.0282C27.528 16.3504 27.0303 17.6301 26.1157 18.5982C25.2724 19.4909 24.1354 20.0545 22.9123 20.1933C22.7247 20.2146 22.5613 20.3373 22.502 20.5165L22.4783 20.5881C22.4393 20.7058 22.4496 20.8343 22.5069 20.9443L22.5198 20.9691Z" fill="#2F3C54"/>
<path d="M7.45399 20.9691C7.37089 21.1286 7.20203 21.2263 7.02306 21.2083C5.52731 21.0577 4.13375 20.3774 3.10501 19.2884C2.00905 18.1283 1.41256 16.5947 1.44097 15.0103C1.46939 13.426 1.96814 11.7569 3.10501 10.6357C4.13247 9.62229 5.62478 8.98253 7.08993 8.84649C7.34556 8.82275 7.55652 9.03102 7.55652 9.28775V9.30419C7.55652 9.55419 7.35601 9.7563 7.10726 9.78122C5.90699 9.90146 4.7014 10.4091 3.85812 11.2408C2.90941 12.1765 2.4932 13.7061 2.46949 15.0282C2.44578 16.3504 2.94355 17.6301 3.85812 18.5982C4.70141 19.4909 5.83846 20.0545 7.06153 20.1933C7.24911 20.2146 7.41248 20.3373 7.47182 20.5165L7.49555 20.5881C7.53452 20.7058 7.52419 20.8343 7.4669 20.9443L7.45399 20.9691Z" fill="#2F3C54"/>
<path d="M20.3134 13.3801C20.1397 13.1803 20.1733 12.8715 20.4103 12.7537C20.7182 12.6007 21.0557 12.5008 21.4059 12.4606C21.9236 12.4012 22.4491 12.4746 22.9242 12.6725C23.3994 12.8704 23.8058 13.1853 24.0984 13.5822C24.2928 13.8459 24.4319 14.139 24.5104 14.4465C24.576 14.7034 24.3664 14.9306 24.1015 14.9417V14.9417C23.8394 14.9527 23.6239 14.7455 23.535 14.4988C23.4811 14.3491 23.4047 14.2062 23.3076 14.0744C23.1138 13.8115 22.8446 13.603 22.5299 13.4719C22.2152 13.3408 21.8671 13.2922 21.5242 13.3316C21.3232 13.3546 21.1285 13.4074 20.9474 13.487C20.7317 13.5819 20.468 13.5579 20.3134 13.3801V13.3801Z" fill="#2F3C54"/>
<path d="M10.327 18.0949C10.4931 18.3029 10.4603 18.6087 10.236 18.7521C9.56594 19.1805 8.79335 19.429 7.99345 19.4689C7.03248 19.5168 6.08076 19.2614 5.27293 18.7387C4.46509 18.2161 3.84205 17.4527 3.49194 16.5564C3.14182 15.6602 3.08237 14.6766 3.32198 13.7448C3.56159 12.8129 4.08814 11.98 4.82713 11.3638C5.56613 10.7477 6.48015 10.3795 7.43991 10.3113C8.39966 10.2432 9.35654 10.4785 10.1752 10.9841C10.8566 11.4049 11.4135 11.9952 11.7938 12.6937C11.9211 12.9276 11.8024 13.2112 11.5565 13.3132V13.3132C11.3106 13.4153 11.0312 13.2966 10.8975 13.0664C10.5992 12.5532 10.1779 12.1188 9.66865 11.8043C9.02204 11.405 8.26625 11.2191 7.50819 11.273C6.75013 11.3268 6.02819 11.6176 5.4445 12.1043C4.86081 12.591 4.44491 13.2488 4.25566 13.9849C4.0664 14.7209 4.11336 15.4978 4.3899 16.2056C4.66643 16.9135 5.15854 17.5165 5.79661 17.9293C6.43467 18.3422 7.18639 18.5439 7.94541 18.506C8.54322 18.4762 9.12173 18.2989 9.63062 17.9932C9.85883 17.8561 10.1608 17.8869 10.327 18.0949V18.0949Z" fill="#2F3C54"/>
<path d="M19.4236 11.6795C19.2574 11.4715 19.2902 11.1658 19.5145 11.0223C20.1846 10.5939 20.9572 10.3455 21.7571 10.3055C22.718 10.2576 23.6698 10.513 24.4776 11.0357C25.2854 11.5583 25.9085 12.3218 26.2586 13.218C26.6087 14.1142 26.6681 15.0978 26.4285 16.0296C26.1889 16.9615 25.6624 17.7944 24.9234 18.4106C24.1844 19.0267 23.2704 19.3949 22.3106 19.4631C21.3509 19.5312 20.394 19.2959 19.5753 18.7903C18.8939 18.3695 18.337 17.7792 17.9567 17.0807C17.8294 16.8469 17.9481 16.5632 18.194 16.4612V16.4612C18.4399 16.3591 18.7193 16.4778 18.853 16.708C19.1514 17.2212 19.5726 17.6556 20.0819 17.9701C20.7285 18.3694 21.4843 18.5553 22.2423 18.5015C23.0004 18.4476 23.7223 18.1568 24.306 17.6701C24.8897 17.1835 25.3056 16.5256 25.4949 15.7896C25.6841 15.0535 25.6372 14.2766 25.3606 13.5688C25.0841 12.8609 24.592 12.2579 23.9539 11.8451C23.3158 11.4323 22.5641 11.2305 21.8051 11.2684C21.2073 11.2982 20.6288 11.4755 20.1199 11.7812C19.8917 11.9183 19.5897 11.8875 19.4236 11.6795V11.6795Z" fill="#2F3C54"/>
<path d="M9.6456 16.6218C9.83136 16.8203 9.82312 17.1389 9.58384 17.2673C9.22028 17.4623 8.81895 17.5256 8.39796 17.5633C7.81657 17.6153 7.23114 17.5145 6.71569 17.2737C6.20025 17.0328 5.77794 16.6626 5.50217 16.21C5.31336 15.9 5.19905 15.561 5.16399 15.2137C5.13692 14.9456 5.38017 14.7486 5.64869 14.7711V14.7711C5.9282 14.7945 6.12574 15.0493 6.18861 15.3227C6.22623 15.4863 6.2909 15.6451 6.38145 15.7937C6.56411 16.0935 6.84383 16.3387 7.18524 16.4982C7.52665 16.6578 7.91442 16.7245 8.29951 16.6901C8.53477 16.669 8.76258 16.6107 8.97241 16.5191C9.19966 16.4199 9.47597 16.4405 9.6456 16.6218V16.6218Z" fill="#2F3C54"/>
<line x1="18.0795" y1="10.7859" x2="17.5784" y2="11.1367" stroke="#2F3C54" stroke-width="0.917477" stroke-linecap="round"/>
<line x1="12.8804" y1="18.5842" x2="12.3793" y2="18.935" stroke="#2F3C54" stroke-width="0.917477" stroke-linecap="round"/>
<path d="M20.6859 13.1289L14.2144 17.5901" stroke="#2F3C54" stroke-width="0.917477" stroke-linecap="round"/>
<path d="M9.308 16.896L15.9943 12.3371" stroke="#2F3C54" stroke-width="0.917477" stroke-linecap="round"/>
<line x1="20.0398" y1="11.2447" x2="9.93316" y2="18.362" stroke="#2F3C54" stroke-width="0.917477" stroke-linecap="round"/>
</svg>
