<svg width="457" height="90" viewBox="0 0 457 90" fill="none" xmlns="http://www.w3.org/2000/svg">
<g filter="url(#filter0_d_707_51)">
<path d="M18.5426 81C16.8177 81 15.4282 80.5209 14.3741 79.5626C13.4158 78.5085 12.9367 77.1669 12.9367 75.5379V7.97973C12.9367 6.25484 13.4158 4.91326 14.3741 3.95499C15.4282 2.90089 16.8177 2.37383 18.5426 2.37383C20.1716 2.37383 21.4653 2.90089 22.4235 3.95499C23.4776 4.91326 24.0047 6.25484 24.0047 7.97973V12.8669C27.0712 9.3213 30.8563 6.54232 35.3602 4.52995C39.9599 2.51758 44.895 1.51139 50.1655 1.51139C56.9692 1.51139 63.0543 2.9488 68.4206 5.82362C73.7869 8.6026 78.0033 12.7232 81.0698 18.1853C84.232 23.6475 85.8132 30.3074 85.8132 38.1653V75.5379C85.8132 77.0711 85.2861 78.3648 84.232 79.4189C83.178 80.473 81.8843 81 80.351 81C78.722 81 77.3804 80.473 76.3263 79.4189C75.2722 78.3648 74.7452 77.0711 74.7452 75.5379V38.1653C74.7452 29.2533 72.2537 22.6892 67.2706 18.4728C62.3835 14.1606 56.2984 12.0045 49.0156 12.0045C44.3201 12.0045 40.0557 12.9148 36.2227 14.7355C32.4854 16.5563 29.5148 19.0478 27.3107 22.2101C25.1067 25.3724 24.0047 28.9659 24.0047 32.9906V75.5379C24.0047 77.1669 23.4776 78.5085 22.4235 79.5626C21.4653 80.5209 20.1716 81 18.5426 81Z" fill="white"/>
<path d="M320.445 81C318.145 81 316.42 79.7542 315.27 77.2627L283.36 9.56087C282.785 8.31512 282.737 7.06937 283.216 5.82362C283.695 4.57786 284.654 3.61959 286.091 2.9488C287.433 2.27801 288.726 2.18219 289.972 2.66132C291.218 3.14046 292.176 4.0029 292.847 5.24865L320.445 65.0448L347.756 5.24865C348.331 3.90707 349.289 3.04463 350.631 2.66132C352.068 2.18219 353.458 2.2301 354.799 2.80506C356.141 3.47585 357.051 4.48204 357.53 5.82362C358.009 7.06937 357.961 8.2672 357.386 9.41713L325.907 77.2627C324.757 79.7542 322.937 81 320.445 81ZM404.85 81.7187C397.471 81.7187 390.859 79.9938 385.014 76.544C379.168 72.9984 374.521 68.2071 371.071 62.17C367.717 56.1329 366.04 49.3291 366.04 41.7588C366.04 34.0926 367.765 27.241 371.215 21.2039C374.76 15.1668 379.552 10.4233 385.589 6.97354C391.626 3.42793 398.43 1.65513 406 1.65513C413.57 1.65513 420.326 3.42793 426.267 6.97354C432.305 10.4233 437.048 15.1668 440.498 21.2039C444.043 27.241 445.864 34.0926 445.96 41.7588V75.5379C445.96 77.1669 445.433 78.5085 444.379 79.5626C443.325 80.5209 441.983 81 440.354 81C438.725 81 437.383 80.5209 436.329 79.5626C435.275 78.5085 434.748 77.1669 434.748 75.5379V66.7697C431.49 71.3694 427.274 75.0108 422.099 77.694C416.924 80.3771 411.175 81.7187 404.85 81.7187ZM406 71.6569C411.558 71.6569 416.493 70.3632 420.805 67.7759C425.213 65.1885 428.663 61.6429 431.155 57.139C433.742 52.5393 435.036 47.4126 435.036 41.7588C435.036 36.0092 433.742 30.8824 431.155 26.3785C428.663 21.8747 425.213 18.3291 420.805 15.7417C416.493 13.0586 411.558 11.717 406 11.717C400.538 11.717 395.603 13.0586 391.195 15.7417C386.787 18.3291 383.289 21.8747 380.702 26.3785C378.114 30.8824 376.821 36.0092 376.821 41.7588C376.821 47.4126 378.114 52.5393 380.702 57.139C383.289 61.6429 386.787 65.1885 391.195 67.7759C395.603 70.3632 400.538 71.6569 406 71.6569Z" fill="white"/>
<path d="M139.047 77.2722C138.834 78.8143 137.473 79.9465 135.927 79.7618C126.355 78.6184 116.726 74.2204 110.224 67.296C103.099 59.7091 99.2218 49.6804 99.4065 39.3189C99.5912 28.9575 103.824 19.0708 111.214 11.7379C117.897 5.1071 126.69 1.03179 136.045 0.166218C137.691 0.0138691 139.059 1.33984 139.091 2.993L139.103 3.62948C139.135 5.28345 137.816 6.63625 136.171 6.81276C128.551 7.63057 121.404 11.0036 115.946 16.4198C109.779 22.539 106.247 30.7894 106.092 39.436C105.938 48.0825 109.174 56.4514 115.119 62.7826C120.451 68.4608 128.445 72.1032 136.324 73.1332C137.854 73.3333 139.082 74.5615 139.146 76.1036L139.149 76.1871C139.157 76.3658 139.148 76.5448 139.124 76.722L139.047 77.2722Z" fill="white"/>
<path d="M239.226 78.2826C239.768 79.328 240.872 79.9692 242.044 79.8501C251.761 78.8625 260.815 74.4141 267.499 67.296C274.623 59.7091 278.501 49.6804 278.316 39.3189C278.131 28.9575 273.899 19.0708 266.508 11.7379C259.826 5.1071 251.032 1.03179 241.678 0.166218C240.031 0.0138691 238.664 1.33984 238.632 2.993L238.62 3.62948C238.588 5.28345 239.906 6.63625 241.551 6.81276C249.172 7.63057 256.318 11.0036 261.777 16.4198C267.944 22.539 271.476 30.7894 271.63 39.4359C271.784 48.0825 268.548 56.4514 262.603 62.7826C257.124 68.6175 249.737 72.3026 241.791 73.2125C240.565 73.3528 239.498 74.1558 239.112 75.3279L238.955 75.8044C238.704 76.5691 238.771 77.4028 239.141 78.1177L239.226 78.2826Z" fill="white"/>
<path d="M224.698 29.1299C223.573 27.8277 223.79 25.8223 225.329 25.0517C227.333 24.0479 229.53 23.3931 231.811 23.1299C235.176 22.7416 238.592 23.2211 241.681 24.5155C244.77 25.8099 247.411 27.8687 249.313 30.4644C250.581 32.1946 251.488 34.1184 251.997 36.1365C252.419 37.8071 251.057 39.2825 249.335 39.3552V39.3552C247.631 39.4272 246.23 38.0801 245.657 36.4736C245.306 35.4893 244.808 34.5498 244.173 33.6836C242.913 31.9644 241.164 30.6007 239.118 29.7433C237.072 28.886 234.809 28.5683 232.58 28.8256C231.281 28.9755 230.023 29.3173 228.851 29.833C227.438 30.4553 225.708 30.2984 224.698 29.1299V29.1299Z" fill="white"/>
<path d="M159.804 59.9919C160.879 61.3466 160.667 63.3314 159.212 64.2678C154.854 67.0743 149.828 68.7015 144.623 68.9627C138.377 69.2763 132.19 67.6059 126.939 64.1879C121.687 60.7699 117.637 55.7773 115.361 49.9164C113.085 44.0555 112.699 37.623 114.257 31.529C115.814 25.435 119.237 19.9879 124.041 15.9584C128.845 11.929 134.786 9.52104 141.025 9.07535C147.264 8.62966 153.484 10.1688 158.806 13.4749C163.243 16.2315 166.868 20.1 169.34 24.6784C170.161 26.1978 169.391 28.0363 167.797 28.7017V28.7017C166.194 29.3712 164.37 28.5961 163.5 27.0919C161.561 23.7358 158.823 20.8956 155.513 18.8391C151.31 16.2277 146.397 15.0121 141.469 15.3641C136.541 15.7161 131.848 17.618 128.054 20.8007C124.26 23.9834 121.556 28.2857 120.326 33.099C119.096 37.9124 119.401 42.9931 121.199 47.6223C122.996 52.2515 126.195 56.1949 130.343 58.8946C134.491 61.5943 139.377 62.9137 144.311 62.666C148.189 62.4713 151.942 61.3163 155.245 59.3247C156.739 58.4242 158.719 58.626 159.804 59.9919V59.9919Z" fill="white"/>
<path d="M218.913 18.0095C217.837 16.6549 218.05 14.67 219.504 13.7336C223.863 10.9272 228.889 9.29999 234.093 9.03875C240.34 8.72517 246.527 10.3955 251.778 13.8136C257.029 17.2316 261.079 22.2242 263.355 28.0851C265.631 33.946 266.018 40.3784 264.46 46.4725C262.903 52.5665 259.48 58.0135 254.676 62.043C249.872 66.0725 243.931 68.4804 237.692 68.9261C231.453 69.3718 225.233 67.8327 219.911 64.5266C215.474 61.77 211.849 57.9014 209.377 53.3231C208.556 51.8036 209.326 49.9652 210.92 49.2998V49.2998C212.523 48.6303 214.347 49.4053 215.216 50.9095C217.156 54.2656 219.894 57.1058 223.204 59.1624C227.407 61.7738 232.32 62.9894 237.248 62.6374C242.176 62.2854 246.868 60.3835 250.663 57.2008C254.457 54.0181 257.161 49.7158 258.391 44.9024C259.621 40.0891 259.316 35.0084 257.518 30.3792C255.721 25.75 252.522 21.8066 248.374 19.1069C244.226 16.4071 239.34 15.0878 234.406 15.3355C230.528 15.5302 226.774 16.6852 223.471 18.6767C221.978 19.5773 219.997 19.3755 218.913 18.0095V18.0095Z" fill="white"/>
<path d="M155.376 50.3554C156.579 51.6484 156.526 53.7178 154.974 54.5573C152.607 55.8376 149.995 56.2524 147.253 56.4994C143.474 56.8399 139.668 56.1808 136.318 54.6055C132.967 53.0302 130.222 50.6094 128.429 47.6492C127.199 45.6181 126.456 43.3958 126.229 41.1195C126.056 39.3747 127.639 38.0927 129.386 38.24V38.24C131.201 38.393 132.484 40.0466 132.886 41.8236C133.13 42.9018 133.552 43.9479 134.145 44.9269C135.332 46.8876 137.151 48.4911 139.37 49.5345C141.589 50.5779 144.11 51.0145 146.613 50.7889C148.135 50.6519 149.608 50.274 150.966 49.6802C152.455 49.0291 154.268 49.1643 155.376 50.3554V50.3554Z" fill="white"/>
<line x1="2.9946" y1="-2.9946" x2="6.96522" y2="-2.9946" transform="matrix(-0.817527 0.57589 -0.571263 -0.820767 210.92 8)" stroke="white" stroke-width="5.9892" stroke-linecap="round"/>
<line x1="2.9946" y1="-2.9946" x2="6.96522" y2="-2.9946" transform="matrix(-0.817527 0.57589 -0.571263 -0.820767 177.123 59)" stroke="white" stroke-width="5.9892" stroke-linecap="round"/>
<path d="M227.13 27.5L185.063 56.6744" stroke="white" stroke-width="5.9892" stroke-linecap="round"/>
<path d="M153.169 52.1348L196.633 22.3213" stroke="white" stroke-width="5.9892" stroke-linecap="round"/>
<line x1="2.9946" y1="-2.9946" x2="83.4967" y2="-2.9946" transform="matrix(-0.815971 0.578092 -0.573465 -0.81923 223.652 11.0005)" stroke="white" stroke-width="5.9892" stroke-linecap="round"/>
</g>
<defs>
<filter id="filter0_d_707_51" x="8.93665" y="0.154297" width="441.023" height="89.5645" filterUnits="userSpaceOnUse" color-interpolation-filters="sRGB">
<feFlood flood-opacity="0" result="BackgroundImageFix"/>
<feColorMatrix in="SourceAlpha" type="matrix" values="0 0 0 0 0 0 0 0 0 0 0 0 0 0 0 0 0 0 127 0" result="hardAlpha"/>
<feOffset dy="4"/>
<feGaussianBlur stdDeviation="2"/>
<feComposite in2="hardAlpha" operator="out"/>
<feColorMatrix type="matrix" values="0 0 0 0 0 0 0 0 0 0 0 0 0 0 0 0 0 0 0.25 0"/>
<feBlend mode="normal" in2="BackgroundImageFix" result="effect1_dropShadow_707_51"/>
<feBlend mode="normal" in="SourceGraphic" in2="effect1_dropShadow_707_51" result="shape"/>
</filter>
</defs>
</svg>
