<svg  viewBox="0 0 31 31" xmlns="http://www.w3.org/2000/svg">
<path d="M7.54165 10.0212H1.28876V29.2968H7.54165V10.0212Z" fill="#1B80E4"/>
<path d="M24.5735 10.2473C24.5071 10.2265 24.4441 10.2038 24.3745 10.1841C24.2902 10.165 24.2066 10.149 24.1209 10.1353C23.7891 10.0686 23.4251 10.0213 22.9989 10.0213C19.3537 10.0213 17.0412 12.6798 16.2797 13.7065V10.0212H10.0268V29.2968H16.2797V18.7829C16.2797 18.7829 21.0049 12.1836 22.9989 17.0303V29.2968H29.2501V16.2894C29.2501 13.3768 27.2594 10.95 24.5735 10.2473Z" fill="#1B80E4"/>
<path d="M7.40676 4.32651C7.40676 6.0204 6.03725 7.39313 4.34846 7.39313C2.65955 7.39313 1.2901 6.02034 1.2901 4.32651C1.2901 2.63298 2.65955 1.26001 4.34846 1.26001C6.03725 1.26001 7.40676 2.63298 7.40676 4.32651Z" fill="#1B80E4"/>
</svg>
