
<svg class="noova-icon-blue dark:hidden"  viewBox="0 0 30 30" xmlns="http://www.w3.org/2000/svg">
    <circle cx="15" cy="15" r="12" fill="#2F3C54"/>
    <path d="M21.0158 19.7752C21.0823 19.9028 21.2174 19.981 21.3606 19.9665C22.5572 19.8461 23.672 19.3018 24.495 18.4306C25.3718 17.5025 25.849 16.2757 25.8263 15.0082C25.8035 13.7407 25.4045 12.4055 24.495 11.5084C23.6731 10.6977 22.4792 10.1859 21.3071 10.0771C21.1026 10.0581 20.9338 10.2247 20.9338 10.4301V10.4433C20.9338 10.6433 21.0942 10.8049 21.2932 10.8249C22.2534 10.9211 23.2179 11.3271 23.8925 11.9925C24.6515 12.7411 24.9845 13.9648 25.0034 15.0225C25.0224 16.0802 24.6242 17.104 23.8925 17.8785C23.2179 18.5926 22.3083 19.0435 21.3298 19.1545C21.1797 19.1716 21.0491 19.2697 21.0016 19.4131L20.9826 19.4704C20.9514 19.5646 20.9597 19.6674 21.0055 19.7553L21.0158 19.7752Z" fill="#FDFBF9"/>
    <path d="M8.96319 19.7752C8.89671 19.9028 8.76162 19.981 8.61845 19.9665C7.42185 19.8461 6.307 19.3018 5.48401 18.4306C4.60724 17.5025 4.13004 16.2757 4.15278 15.0082C4.17551 13.7407 4.57451 12.4055 5.48401 11.5084C6.30598 10.6977 7.49982 10.1859 8.67195 10.0771C8.87645 10.0581 9.04521 10.2247 9.04521 10.4301V10.4433C9.04521 10.6433 8.88481 10.8049 8.68581 10.8249C7.72559 10.9211 6.76112 11.3271 6.0865 11.9925C5.32752 12.7411 4.99456 13.9648 4.97559 15.0225C4.95662 16.0802 5.35484 17.104 6.0865 17.8785C6.76112 18.5926 7.67076 19.0435 8.64922 19.1545C8.79929 19.1716 8.92998 19.2697 8.97746 19.4131L8.99644 19.4704C9.02762 19.5646 9.01935 19.6674 8.97352 19.7553L8.96319 19.7752Z" fill="#FDFBF9"/>
    <path d="M19.2507 13.7042C19.1117 13.5443 19.1386 13.2973 19.3283 13.2031C19.5746 13.0806 19.8445 13.0007 20.1247 12.9686C20.5389 12.9211 20.9592 12.9798 21.3394 13.1381C21.7195 13.2964 22.0446 13.5483 22.2787 13.8658C22.4342 14.0768 22.5455 14.3113 22.6083 14.5573C22.6608 14.7628 22.4931 14.9446 22.2812 14.9535V14.9535C22.0715 14.9623 21.8991 14.7965 21.828 14.5991C21.7848 14.4794 21.7238 14.3651 21.6461 14.2596C21.491 14.0493 21.2757 13.8825 21.0239 13.7776C20.7721 13.6727 20.4937 13.6339 20.2193 13.6654C20.0585 13.6838 19.9028 13.726 19.7579 13.7897C19.5854 13.8656 19.3744 13.8464 19.2507 13.7042V13.7042Z" fill="#FDFBF9"/>
    <path d="M11.2616 17.4758C11.3945 17.6422 11.3682 17.8868 11.1888 18.0016C10.6527 18.3443 10.0347 18.5431 9.39475 18.575C8.62597 18.6134 7.86459 18.409 7.21833 17.9909C6.57206 17.5728 6.07362 16.962 5.79353 16.2451C5.51344 15.5281 5.46588 14.7412 5.65757 13.9957C5.84926 13.2502 6.2705 12.5839 6.86169 12.091C7.45289 11.598 8.18411 11.3035 8.95191 11.249C9.71971 11.1944 10.4852 11.3827 11.1401 11.7872C11.6853 12.1238 12.1308 12.596 12.4351 13.1549C12.5369 13.3419 12.4419 13.5688 12.2452 13.6505V13.6505C12.0485 13.7321 11.825 13.6372 11.718 13.453C11.4793 13.0424 11.1423 12.695 10.7349 12.4434C10.2176 12.1239 9.61298 11.9752 9.00654 12.0183C8.40009 12.0613 7.82254 12.294 7.35558 12.6833C6.88863 13.0727 6.55591 13.599 6.40451 14.1878C6.2531 14.7766 6.29067 15.3981 6.5119 15.9644C6.73313 16.5307 7.12682 17.0131 7.63727 17.3434C8.14772 17.6736 8.7491 17.835 9.35631 17.8047C9.83456 17.7809 10.2974 17.639 10.7045 17.3945C10.887 17.2848 11.1286 17.3094 11.2616 17.4758V17.4758Z" fill="#FDFBF9"/>
    <path d="M18.5388 12.3435C18.4059 12.1771 18.4321 11.9325 18.6116 11.8178C19.1476 11.475 19.7657 11.2763 20.4056 11.2443C21.1744 11.206 21.9358 11.4103 22.5821 11.8284C23.2283 12.2466 23.7268 12.8573 24.0069 13.5743C24.2869 14.2912 24.3345 15.0781 24.1428 15.8236C23.9511 16.5691 23.5299 17.2354 22.9387 17.7284C22.3475 18.2213 21.6163 18.5159 20.8485 18.5704C20.0807 18.6249 19.3152 18.4366 18.6602 18.0322C18.1151 17.6955 17.6696 17.2233 17.3653 16.6644C17.2635 16.4774 17.3585 16.2505 17.5552 16.1688V16.1688C17.7519 16.0872 17.9754 16.1822 18.0824 16.3663C18.3211 16.7769 18.6581 17.1244 19.0655 17.376C19.5828 17.6954 20.1874 17.8441 20.7938 17.8011C21.4003 17.758 21.9778 17.5253 22.4448 17.136C22.9118 16.7467 23.2445 16.2204 23.3959 15.6315C23.5473 15.0427 23.5097 14.4212 23.2885 13.8549C23.0673 13.2886 22.6736 12.8062 22.1631 12.476C21.6527 12.1457 21.0513 11.9843 20.4441 12.0146C19.9658 12.0385 19.503 12.1803 19.0959 12.4249C18.9133 12.5345 18.6717 12.5099 18.5388 12.3435V12.3435Z" fill="#FDFBF9"/>
    <path d="M10.7165 16.2973C10.8651 16.4561 10.8585 16.711 10.6671 16.8137C10.3762 16.9697 10.0551 17.0204 9.71836 17.0505C9.25325 17.0922 8.7849 17.0115 8.37254 16.8188C7.96019 16.6261 7.62234 16.33 7.40173 15.9679C7.25067 15.7199 7.15923 15.4487 7.13118 15.1708C7.10953 14.9564 7.30412 14.7988 7.51894 14.8168V14.8168C7.74255 14.8355 7.90058 15.0394 7.95088 15.2581C7.98097 15.389 8.03271 15.5159 8.10515 15.6348C8.25128 15.8747 8.47505 16.0708 8.74818 16.1985C9.02131 16.3261 9.33153 16.3795 9.6396 16.352C9.82781 16.3351 10.0101 16.2885 10.1779 16.2152C10.3597 16.1358 10.5808 16.1523 10.7165 16.2973V16.2973Z" fill="#FDFBF9"/>
    <line x1="17.4636" y1="11.6288" x2="17.0627" y2="11.9095" stroke="#FDFBF9" stroke-width="0.733982" stroke-linecap="round"/>
    <line x1="13.3043" y1="17.8676" x2="12.9035" y2="18.1482" stroke="#FDFBF9" stroke-width="0.733982" stroke-linecap="round"/>
    <path d="M19.5487 13.5029L14.3715 17.0718" stroke="#FDFBF9" stroke-width="0.733982" stroke-linecap="round"/>
    <path d="M10.4464 16.5166L15.7954 12.8695" stroke="#FDFBF9" stroke-width="0.733982" stroke-linecap="round"/>
    <line x1="19.0319" y1="11.9957" x2="10.9465" y2="17.6896" stroke="#FDFBF9" stroke-width="0.733982" stroke-linecap="round"/>
</svg>    