<svg width="30" height="30" viewBox="0 0 30 30" fill="none" xmlns="http://www.w3.org/2000/svg">
<path d="M15.0073 0.227295C8.83885 0.227295 7.03481 0.233659 6.68414 0.262749C5.41827 0.367977 4.63057 0.567295 3.77241 0.994568C3.11107 1.32298 2.58949 1.70366 2.07474 2.23729C1.13726 3.21048 0.569099 4.40775 0.363423 5.83093C0.263426 6.52184 0.234336 6.66275 0.228427 10.1918C0.226154 11.3682 0.228427 12.9164 0.228427 14.993C0.228427 21.1566 0.235245 22.9589 0.26479 23.3089C0.367059 24.5407 0.560235 25.3157 0.969314 26.1634C1.75111 27.7862 3.24425 29.0043 5.00328 29.4589C5.61236 29.6157 6.28506 29.7021 7.14867 29.743C7.51457 29.7589 11.244 29.7702 14.9757 29.7702C18.7074 29.7702 22.4391 29.7657 22.7959 29.7475C23.7959 29.7005 24.3766 29.6225 25.0186 29.4566C26.789 28.9998 28.2549 27.7998 29.0526 26.1543C29.4537 25.3271 29.6571 24.5225 29.7491 23.355C29.7691 23.1005 29.7775 19.0421 29.7775 14.9891C29.7775 10.9355 29.7685 6.88457 29.7485 6.63002C29.6553 5.44366 29.4519 4.64593 29.0378 3.80275C28.698 3.11252 28.3208 2.59707 27.7731 2.07002C26.7956 1.13639 25.6002 0.568204 24.1757 0.362749C23.4855 0.262977 23.348 0.233431 19.8162 0.227295H15.0073Z" fill="url(#paint0_radial_731_16)"/>
<path d="M15.0073 0.227295C8.83885 0.227295 7.03481 0.233659 6.68414 0.262749C5.41827 0.367977 4.63057 0.567295 3.77241 0.994568C3.11107 1.32298 2.58949 1.70366 2.07474 2.23729C1.13726 3.21048 0.569099 4.40775 0.363423 5.83093C0.263426 6.52184 0.234336 6.66275 0.228427 10.1918C0.226154 11.3682 0.228427 12.9164 0.228427 14.993C0.228427 21.1566 0.235245 22.9589 0.26479 23.3089C0.367059 24.5407 0.560235 25.3157 0.969314 26.1634C1.75111 27.7862 3.24425 29.0043 5.00328 29.4589C5.61236 29.6157 6.28506 29.7021 7.14867 29.743C7.51457 29.7589 11.244 29.7702 14.9757 29.7702C18.7074 29.7702 22.4391 29.7657 22.7959 29.7475C23.7959 29.7005 24.3766 29.6225 25.0186 29.4566C26.789 28.9998 28.2549 27.7998 29.0526 26.1543C29.4537 25.3271 29.6571 24.5225 29.7491 23.355C29.7691 23.1005 29.7775 19.0421 29.7775 14.9891C29.7775 10.9355 29.7685 6.88457 29.7485 6.63002C29.6553 5.44366 29.4519 4.64593 29.0378 3.80275C28.698 3.11252 28.3208 2.59707 27.7731 2.07002C26.7956 1.13639 25.6002 0.568204 24.1757 0.362749C23.4855 0.262977 23.348 0.233431 19.8162 0.227295H15.0073Z" fill="url(#paint1_radial_731_16)"/>
<path d="M15.0004 4.09082C12.0378 4.09082 11.666 4.10378 10.5024 4.15673C9.34105 4.20991 8.54835 4.39377 7.85474 4.66355C7.13726 4.94218 6.52864 5.31491 5.92229 5.9215C5.31549 6.52787 4.94278 7.1365 4.66324 7.85378C4.3928 8.54764 4.20871 9.34059 4.15644 10.5015C4.1044 11.6651 4.09076 12.0372 4.09076 14.9999C4.09076 17.9626 4.10394 18.3333 4.15667 19.497C4.21007 20.6583 4.39393 21.451 4.66347 22.1447C4.94232 22.8622 5.31504 23.4708 5.92161 24.0772C6.52773 24.684 7.13635 25.0576 7.85337 25.3363C8.54744 25.6061 9.34037 25.7899 10.5015 25.8431C11.6651 25.896 12.0367 25.909 14.9991 25.909C17.9619 25.909 18.3326 25.896 19.4962 25.8431C20.6575 25.7899 21.4511 25.6061 22.1452 25.3363C22.8625 25.0576 23.4702 24.684 24.0763 24.0772C24.6831 23.4708 25.0558 22.8622 25.3353 22.1449C25.6035 21.4511 25.7876 20.6581 25.8421 19.4972C25.8944 18.3335 25.9081 17.9626 25.9081 14.9999C25.9081 12.0372 25.8944 11.6654 25.8421 10.5017C25.7876 9.34037 25.6035 8.54764 25.3353 7.854C25.0558 7.1365 24.6831 6.52787 24.0763 5.9215C23.4695 5.31468 22.8627 4.94196 22.1445 4.66355C21.4491 4.39377 20.6559 4.20991 19.4946 4.15673C18.331 4.10378 17.9606 4.09082 14.997 4.09082H15.0004ZM14.0218 6.05673C14.3123 6.05627 14.6363 6.05673 15.0004 6.05673C17.9131 6.05673 18.2583 6.06718 19.4085 6.11946C20.4721 6.16809 21.0493 6.34582 21.4339 6.49514C21.9429 6.69287 22.3059 6.92923 22.6875 7.31105C23.0693 7.69287 23.3056 8.0565 23.5038 8.56559C23.6531 8.94968 23.8311 9.52696 23.8795 10.5906C23.9317 11.7406 23.9431 12.086 23.9431 14.9974C23.9431 17.9088 23.9317 18.2542 23.8795 19.4042C23.8308 20.4679 23.6531 21.0451 23.5038 21.4292C23.3061 21.9383 23.0693 22.3008 22.6875 22.6824C22.3057 23.0642 21.9432 23.3006 21.4339 23.4983C21.0498 23.6483 20.4721 23.8256 19.4085 23.8742C18.2585 23.9265 17.9131 23.9379 15.0004 23.9379C12.0876 23.9379 11.7423 23.9265 10.5924 23.8742C9.52878 23.8251 8.95152 23.6474 8.56676 23.4981C8.05768 23.3004 7.69406 23.064 7.31225 22.6822C6.93045 22.3004 6.69409 21.9376 6.49591 21.4283C6.3466 21.0442 6.16865 20.467 6.12024 19.4033C6.06797 18.2533 6.05752 17.9079 6.05752 14.9947C6.05752 12.0815 6.06797 11.7379 6.12024 10.5879C6.16888 9.52423 6.3466 8.94696 6.49591 8.56241C6.69363 8.05332 6.93045 7.68968 7.31225 7.30787C7.69406 6.92605 8.05768 6.68968 8.56676 6.4915C8.95129 6.3415 9.52878 6.16423 10.5924 6.11537C11.5987 6.06991 11.9887 6.05628 14.0218 6.054V6.05673ZM20.8234 7.86809C20.1007 7.86809 19.5144 8.45377 19.5144 9.17673C19.5144 9.89946 20.1007 10.4858 20.8234 10.4858C21.5461 10.4858 22.1325 9.89946 22.1325 9.17673C22.1325 8.454 21.5461 7.86764 20.8234 7.86764V7.86809ZM15.0004 9.39764C11.9067 9.39764 9.39833 11.906 9.39833 14.9999C9.39833 18.0938 11.9067 20.601 15.0004 20.601C18.0942 20.601 20.6016 18.0938 20.6016 14.9999C20.6016 11.906 18.094 9.39764 15.0002 9.39764H15.0004ZM15.0004 11.3635C17.0085 11.3635 18.6367 12.9915 18.6367 14.9999C18.6367 17.0081 17.0085 18.6363 15.0004 18.6363C12.9921 18.6363 11.3642 17.0081 11.3642 14.9999C11.3642 12.9915 12.9921 11.3635 15.0004 11.3635V11.3635Z" fill="white"/>
<defs>
<radialGradient id="paint0_radial_731_16" cx="0" cy="0" r="1" gradientUnits="userSpaceOnUse" gradientTransform="translate(8.07671 32.0457) rotate(-90) scale(29.2793 27.2386)">
<stop stop-color="#FFDD55"/>
<stop offset="0.1" stop-color="#FFDD55"/>
<stop offset="0.5" stop-color="#FF543E"/>
<stop offset="1" stop-color="#C837AB"/>
</radialGradient>
<radialGradient id="paint1_radial_731_16" cx="0" cy="0" r="1" gradientUnits="userSpaceOnUse" gradientTransform="translate(-4.72238 2.35552) rotate(78.678) scale(13.0881 53.9617)">
<stop stop-color="#3771C8"/>
<stop offset="0.128" stop-color="#3771C8"/>
<stop offset="1" stop-color="#6600FF" stop-opacity="0"/>
</radialGradient>
</defs>
</svg>
