<svg width="31" height="31" viewBox="0 0 31 31" fill="none" xmlns="http://www.w3.org/2000/svg">
<g clip-path="url(#clip0_447_266)">
<path d="M9.96206 27.4676C21.2828 27.4676 27.4749 18.0884 27.4749 9.9548C27.4749 9.68843 27.4749 9.42323 27.4569 9.15921C28.6614 8.28786 29.7013 7.20909 30.5276 5.97323C29.4043 6.47099 28.2126 6.79735 26.9925 6.94161C28.2771 6.17263 29.2391 4.9622 29.6984 3.5372C28.4903 4.25409 27.1683 4.7594 25.79 5.03122C24.6263 3.79366 23.0009 3.09106 21.3022 3.09106C17.9224 3.09106 15.1413 5.87216 15.1413 9.25185C15.1413 9.72071 15.1949 10.1881 15.3008 10.6448C10.3545 10.3969 5.7395 8.05724 2.61564 4.21401C0.991184 7.01046 1.83171 10.6345 4.52122 12.4304C3.54183 12.4014 2.58347 12.1371 1.72765 11.66V11.738C1.72847 14.6568 3.80462 17.1937 6.66564 17.7716C5.75954 18.0187 4.80863 18.0548 3.88648 17.8772C4.69079 20.3783 7.01017 22.1023 9.63687 22.1516C7.45777 23.8641 4.76439 24.7944 1.99284 24.7916C1.50312 24.7907 1.01386 24.761 0.527649 24.7028C3.34214 26.5089 6.61788 27.4672 9.96206 27.4628" fill="#1DA1F2"/>
</g>
<defs>
<clipPath id="clip0_447_266">
<rect width="30" height="30" fill="white" transform="translate(0.527649 0.278809)"/>
</clipPath>
</defs>
</svg>
