<svg width="31" height="31" viewBox="0 0 31 31" fill="none" xmlns="http://www.w3.org/2000/svg">
<g clip-path="url(#clip0_447_271)">
<path d="M15.0221 1.04028C7.15881 1.04028 0.783813 7.41528 0.783813 15.2786C0.783813 18.1555 1.63928 20.8391 3.10999 23.0774L1.276 29.2883L7.72717 27.5012C9.85999 28.7786 12.3561 29.511 15.0221 29.511C22.8854 29.511 29.2604 23.136 29.2604 15.2727C29.2604 7.41528 22.8854 1.04028 15.0221 1.04028Z" fill="#25D366"/>
<path d="M22.8444 19.1868C22.8268 18.9993 22.7155 18.8353 22.5456 18.7591C21.3971 18.2318 20.2428 17.7044 19.0944 17.1771C18.9655 17.1185 18.8073 17.1478 18.7135 17.2591L17.1549 19.0169C17.0319 19.1576 16.8385 19.2044 16.6686 19.1341C15.86 18.8001 14.7702 18.2376 13.6686 17.2884C12.3502 16.1576 11.5768 14.9447 11.1432 14.1536C11.36 14.0072 11.9518 13.5677 12.2155 12.7533C12.2155 12.7474 12.2213 12.7415 12.2213 12.7415C12.3854 12.2376 12.3502 11.6927 12.1686 11.1947C11.8581 10.3685 11.237 8.76888 10.9967 8.52279C10.9557 8.48177 10.9088 8.44076 10.9088 8.44076C10.7331 8.28255 10.5045 8.19466 10.2643 8.18294C10.1823 8.17708 10.0944 8.17708 10.0006 8.17708C9.7311 8.17122 9.49087 8.17122 9.31509 8.19466C8.81704 8.26497 8.45376 8.59896 8.22524 8.88021C7.94985 9.21419 7.62173 9.71224 7.40493 10.3685C7.38735 10.4271 7.36977 10.4798 7.3522 10.5384C7.11196 11.3704 7.15884 12.2611 7.44595 13.0814C7.71548 13.849 8.10806 14.763 8.69985 15.7298C9.70181 17.3763 10.7916 18.3958 11.5299 19.0697C12.362 19.8372 13.3932 20.7806 15.028 21.5658C16.5397 22.2923 17.9108 22.5618 18.8307 22.6732C19.2057 22.7083 19.8971 22.7142 20.6881 22.4154C21.0514 22.2747 21.3561 22.1048 21.6022 21.9232C22.2526 21.4603 22.7096 20.763 22.8268 19.9779C22.8268 19.972 22.8268 19.9661 22.8268 19.9603C22.8678 19.6615 22.862 19.4036 22.8444 19.1868Z" fill="white"/>
</g>
<defs>
<clipPath id="clip0_447_271">
<rect width="30" height="30" fill="white" transform="translate(0.0220947 0.278809)"/>
</clipPath>
</defs>
</svg>
